<svg version="1" xmlns="http://www.w3.org/2000/svg" width="701.333" height="701.333" viewBox="0 0 526.000000 526.000000"><path d="M39.3 150.1c.3 104.1.5 116.1 2 122.4 5.8 23.9 13.7 39 29.1 55.2C93.5 352.3 123.1 365 157 365c56.1 0 103-37 115.6-91.1 1.5-6.4 1.8-16 2.4-74.4.6-64.9.7-67.2 2.8-75 4.1-14.8 12.7-30.3 23.1-41.7 5.8-6.3 19-16.8 21.2-16.8 2.3 0 14.4 9.7 20.8 16.7 14 15.2 23.6 35.4 25.6 54 .4 3.2 1 34.4 1.4 69.3l.8 63.5 2.7 10c12.7 47.9 57 83.1 107.4 85.2l13.2.6V249.7c0-124 .1-120.4-5.1-135.9-5.5-16.4-15.7-32.4-28.6-44.9-17.3-16.7-36-26.4-61.8-32.1-3.8-.8-12.1-1.3-22.5-1.2-15 .1-17.6.4-28.4 3.2-6.5 1.7-14.8 4.5-18.4 6.2l-6.5 3.1-8.8-3.6c-33.9-13.7-69.7-12.4-101.3 3.8-22.9 11.7-40.8 29.7-51.7 51.9-1.8 3.8-3.6 6.8-3.9 6.8-.3 0-1.8-2.6-3.2-5.8-7-15.3-21.8-32.9-36.5-43.4-19.6-14.1-40.8-21.4-66.1-22.5l-12.3-.6.4 115.4zm25.8-98.6c38.7 6.7 69.2 33.7 80.5 71 2.5 8.3 2.8 10.6 3.2 30.7.3 15.6.7 21.8 1.5 21.8 2.6 0 11.6-5 13-7.2 1.1-1.7 1.6-6.6 2-18.8.5-19 2.3-27.5 8.6-40.7 9.7-20.3 24.3-35.5 44.2-46.2 24.5-13.2 55.2-15.8 81.6-7 3.5 1.1 6.3 2.5 6.3 3s-.4.9-.9.9c-1.7 0-18.1 16.2-22.9 22.8-9.8 13.2-16.8 28.4-20.5 44.7-1.9 8.4-2 13.6-2.7 76-.6 65.5-.7 67.2-2.9 74.4-5.2 17.5-13.6 31.4-26.3 43.7-18.2 17.7-37.7 26.8-62.7 29.3-45.8 4.7-90.8-22.9-106.3-65.2-5.9-16.3-5.8-13.2-5.8-128.8 0-59.3.4-105.9.9-105.9.4 0 4.6.7 9.2 1.5zm330.6 0c39.4 7.5 69.6 34.8 80.6 73 1.9 6.6 2.1 10.9 2.8 73.5.3 36.6.7 85.8.8 109.4l.1 42.9-6.5-.7c-24.6-2.5-51.1-17.6-67.7-38.5-7.1-8.8-14.8-24.5-17.9-36.1-2.2-8.3-2.3-10.1-2.9-74.5-.7-70.6-.7-70.8-6.1-86.9-2.8-8.3-9.3-20.8-15.2-29.4C359 77.3 341 59 339 59c-.6 0-1-.4-1-.9 0-1.3 11.6-5 20.3-6.6 9.9-1.8 27.9-1.8 37.4 0zM39 458.4V489h6v-14c0-7.7.4-14 .8-14 .5 0 1.6 3.6 2.6 8 1.2 5.9 2.2 8.3 3.7 9.1 2.4 1.3 4.9.5 4.9-1.4 0-2.9 3.3-15.8 3.8-15.2.3.3.5 6.6.3 14l-.3 13.5H68v-61h-2.9c-1.7 0-3.3.5-3.7 1.1-.3.6-2.1 8.5-4 17.6-1.8 9.1-3.5 16.7-3.8 17-.6.6-.5.8-4.8-19.7l-3.3-15.5-3.2-.3-3.3-.3v30.5zM88.9 429.9c-2.4 1.9-2.4 2-2.7 27.8-.3 25.1-.2 26 1.8 28.6 2 2.5 2.7 2.7 9 2.7 10.3 0 10 1 10-30.5 0-26 0-26.2-2.3-28.3-3.1-3-12.4-3.1-15.8-.3zm10.9 4.3c.9.9 1.2 7.8 1.2 25 0 23.8 0 23.9-2.2 24.7-1.3.5-3.1.5-4-.1-1.6-.8-1.8-3-1.8-25.3 0-18.5.3-24.5 1.3-24.8 2.2-.9 4.3-.7 5.5.5zM126 458.5V489h6v-15.7c0-9.1.4-15.3.9-14.8.5.6 2.1 6.6 3.5 13.5 3.5 16.2 3.8 17 7.6 17h3v-61.1l-3.2.3-3.3.3.2 15.9c.1 8.9-.2 15.5-.6 15-.5-.5-2.1-6.8-3.6-13.9-3.4-16.8-3.7-17.5-7.5-17.5h-3v30.5zM166 458.4V489h6l-.2-30.3-.3-30.2-2.7-.3-2.8-.3v30.5zM191 458.5V489h6v-12.7c0-7 .4-12.3.8-11.8.5.6 2.5 6.3 4.6 12.7l3.7 11.8H212.8l-5.4-16.6-5.4-16.7 4.4-12.1c2.4-6.7 4.7-12.9 5.1-13.9.6-1.4.1-1.7-2.7-1.7h-3.5l-3.3 9.5c-1.8 5.2-3.6 9.8-4.1 10.1-.5.3-.9-4-.9-9.5V428h-6v30.5zM233.5 429.2c-.5 1.4-9.5 57.1-9.5 58.8 0 .5 1.6 1 3.5 1s3.5-.4 3.5-.8c0-2.2 5.2-37.7 5.5-38.1.3-.2.6.2.9 1 .4 1.4 4.7 35.6 4.6 37.1 0 .5 1.6.8 3.5.8 2.7 0 3.5-.4 3.5-1.8-.1-3.1-8.8-57.1-9.5-58.2-.9-1.4-5.5-1.3-6 .2zM317.7 428.7c-.4.3-.7 14.1-.7 30.5V489h7v-15.7c0-8.6.2-15.4.4-15.2.2.2 1.8 6.7 3.6 14.3 1.7 7.7 3.6 14.6 4.2 15.3.6.7 2.1 1.3 3.4 1.3h2.4v-61h-6l-.1 16.2c0 10.2-.4 15.6-.9 14.3-.5-1.1-2.1-7.9-3.6-15-1.4-7.2-3.1-13.6-3.6-14.3-1.1-1.3-5-1.7-6.1-.5zM357 458.5V489h6l.1-26c.1-14.3.2-27.5.3-29.3.3-4.7-.3-5.7-3.5-5.7H357v30.5zM382 458.5V489h8.4c7.9 0 8.6-.2 10.5-2.6 2-2.5 2.1-3.9 2.1-28.1v-25.4l-2.5-2.4c-2.2-2.2-3.2-2.5-10.5-2.5h-8v30.5zm13.8-23.3c.9.9 1.2 7.5 1.2 23.4 0 24.2-.3 25.4-5.6 25.4H389v-50h2.8c1.5 0 3.3.5 4 1.2zM422.7 428.7c-.4.3-.7 14.1-.7 30.5V489h5.9l.3-13.8.3-13.7h8l.3 13.7.3 13.8h5.9l-.2-30.3-.3-30.2-2.7-.3-2.8-.3v27.2l-4.2-.3-4.3-.3-.3-13.3c-.3-13-.3-13.2-2.6-13.2-1.2 0-2.6.3-2.9.7zM462 458.4V489h7l-.2-30.3-.3-30.2-3.2-.3-3.3-.3v30.5zM488 458.4V489h6l-.2-30.3-.3-30.2-2.7-.3-2.8-.3v30.5zM277.5 456c-1.8 2-1.8 2.4-.4 4.8 3.1 5.7 11.4 2.5 9.3-3.6-1.2-3.6-6.1-4.3-8.9-1.2z"/></svg>